<svg width="48" height="49" viewBox="0 0 48 49" fill="none" xmlns="http://www.w3.org/2000/svg">
<g clip-path="url(#clip0_1339_664)">
<g clip-path="url(#clip1_1339_664)">
<g clip-path="url(#clip2_1339_664)">
<mask id="mask0_1339_664" style="mask-type:luminance" maskUnits="userSpaceOnUse" x="0" y="0" width="48" height="49">
<path d="M0 0.129883H48V48.1299H0V0.129883Z" fill="white"/>
</mask>
<g mask="url(#mask0_1339_664)">
<path d="M47.125 35.4389L30.388 6.32189C29.7541 5.18383 28.8278 4.23571 27.7047 3.57557C26.5817 2.91542 25.3027 2.5672 24 2.56689C22.6973 2.5672 21.4183 2.91542 20.2953 3.57557C19.1722 4.23571 18.2459 5.18383 17.612 6.32189L11.832 16.3779C11.7205 16.5925 11.6963 16.8419 11.7643 17.074C11.8323 17.3061 11.9873 17.5029 12.197 17.6235C12.4067 17.744 12.6548 17.7789 12.8896 17.7208C13.1244 17.6627 13.3277 17.5162 13.457 17.3119L19.248 7.23989C19.7192 6.39295 20.4082 5.68734 21.2437 5.1961C22.0792 4.70485 23.0308 4.44582 24 4.44582C24.9692 4.44582 25.9208 4.70485 26.7563 5.1961C27.5918 5.68734 28.2808 6.39295 28.752 7.23989L45.496 36.3679C45.907 37.1099 46.125 37.9499 46.125 38.7989C46.1237 40.1299 45.5944 41.406 44.6532 42.3471C43.7121 43.2883 42.436 43.8176 41.105 43.8189H6.896C5.56502 43.8176 4.28893 43.2883 3.34779 42.3471C2.40664 41.406 1.87732 40.1299 1.876 38.7989C1.876 37.9499 2.094 37.1089 2.505 36.3679L9.72 23.8129C9.83147 23.5983 9.85573 23.3489 9.78772 23.1168C9.71971 22.8847 9.56468 22.6878 9.355 22.5673C9.14532 22.4468 8.89719 22.4119 8.66241 22.47C8.42763 22.528 8.22435 22.6745 8.095 22.8789L0.868 35.4499C0.299326 36.4742 0.000622077 37.6263 0 38.7979C0.00185265 40.6258 0.728746 42.3784 2.02119 43.671C3.31364 44.9636 5.06607 45.6908 6.894 45.6929H41.106C42.9339 45.6908 44.6864 44.9636 45.9788 43.671C47.2713 42.3784 47.9981 40.6258 48 38.7979C48 37.6289 47.7 36.4719 47.132 35.4499L47.125 35.4389Z" fill="#18181B"/>
<path d="M4.14622 37.2721C2.98622 39.3641 4.50322 41.9421 6.89422 41.9421H41.1062C43.4972 41.9421 45.0142 39.3641 43.8542 37.2721L27.1092 8.14206C26.7999 7.5893 26.3489 7.12901 25.8025 6.80862C25.2561 6.48823 24.6341 6.31934 24.0007 6.31934C23.3673 6.31934 22.7454 6.48823 22.199 6.80862C21.6526 7.12901 21.2015 7.5893 20.8922 8.14206L4.14622 37.2721ZM5.78322 38.1871L22.5272 9.06006C22.6733 8.79739 22.8869 8.57853 23.146 8.42616C23.4051 8.27379 23.7002 8.19345 24.0007 8.19345C24.3013 8.19345 24.5964 8.27379 24.8554 8.42616C25.1145 8.57853 25.3282 8.79739 25.4742 9.06006L42.2172 38.1861C42.3235 38.3793 42.3776 38.5969 42.3743 38.8174C42.3709 39.0379 42.3102 39.2538 42.1981 39.4437C42.0859 39.6336 41.9263 39.791 41.7349 39.9005C41.5434 40.01 41.3268 40.0677 41.1062 40.0681H6.89422C6.67383 40.0677 6.45733 40.0099 6.26602 39.9005C6.07471 39.791 5.91517 39.6337 5.80308 39.4439C5.691 39.2542 5.63023 39.0385 5.62674 38.8181C5.62326 38.5978 5.67719 38.3803 5.78322 38.1871Z" fill="#18181B"/>
<path d="M23.9998 37.2549C24.7456 37.2541 25.4606 36.9575 25.988 36.4301C26.5154 35.9027 26.812 35.1877 26.8128 34.4419C26.8117 33.6962 26.515 32.9815 25.9876 32.4543C25.4603 31.9272 24.7454 31.6307 23.9998 31.6299C23.254 31.6307 22.5389 31.9273 22.0116 32.4547C21.4842 32.982 21.1876 33.6971 21.1868 34.4429C21.1881 35.1883 21.485 35.9029 22.0123 36.4298C22.5396 36.9567 23.2543 37.2541 23.9998 37.2549ZM23.9998 33.5049C24.2487 33.5051 24.4873 33.6043 24.6631 33.7805C24.8389 33.9567 24.9375 34.1955 24.9373 34.4444C24.937 34.6933 24.8379 34.9319 24.6617 35.1077C24.4855 35.2835 24.2467 35.3821 23.9978 35.3819C23.7489 35.3816 23.5103 35.2825 23.3344 35.1063C23.1586 34.9301 23.06 34.6913 23.0603 34.4424C23.0605 34.1935 23.1597 33.9549 23.3359 33.7791C23.5121 33.6032 23.7509 33.5046 23.9998 33.5049ZM22.1248 29.7549H25.8748C26.3928 29.7549 26.8128 29.3349 26.8128 28.8169V17.5669C26.8128 17.4438 26.7885 17.3218 26.7414 17.2081C26.6942 17.0943 26.6251 16.991 26.538 16.904C26.4509 16.8169 26.3475 16.748 26.2337 16.7009C26.1199 16.6539 25.9979 16.6298 25.8748 16.6299H22.1248C22.0016 16.6298 21.8795 16.6539 21.7657 16.701C21.6518 16.7481 21.5483 16.8172 21.4612 16.9043C21.3741 16.9915 21.305 17.0949 21.2579 17.2088C21.2108 17.3226 21.1866 17.4447 21.1868 17.5679V28.8179C21.1868 29.3349 21.6068 29.7549 22.1248 29.7549ZM23.0628 18.5049H24.9378V27.8799H23.0628V18.5049ZM10.7808 21.0359C11.0295 21.0359 11.2681 20.9371 11.444 20.7611C11.6199 20.5852 11.7188 20.3467 11.7188 20.0979C11.7188 19.8491 11.6199 19.6105 11.444 19.4346C11.2681 19.2587 11.0295 19.1599 10.7808 19.1599C10.532 19.1599 10.2934 19.2587 10.1175 19.4346C9.9416 19.6105 9.84277 19.8491 9.84277 20.0979C9.84277 20.3467 9.9416 20.5852 10.1175 20.7611C10.2934 20.9371 10.532 21.0359 10.7808 21.0359Z" fill="#18181B"/>
</g>
</g>
</g>
</g>
<defs>
<clipPath id="clip0_1339_664">
<rect width="48" height="48" fill="white" transform="translate(0 0.129883)"/>
</clipPath>
<clipPath id="clip1_1339_664">
<rect width="48" height="48" fill="white" transform="translate(0 0.129883)"/>
</clipPath>
<clipPath id="clip2_1339_664">
<rect width="48" height="48" fill="white" transform="translate(0 0.129883)"/>
</clipPath>
</defs>
</svg>
