<svg width="48" height="49" viewBox="0 0 48 49" fill="none" xmlns="http://www.w3.org/2000/svg">
<g clip-path="url(#clip0_1339_728)">
<path d="M15.5609 16.2474C21.9549 9.85445 28.8159 6.02545 32.1609 6.73045C32.0539 6.20945 31.8319 5.77345 31.4959 5.43645C29.0069 2.93945 20.9899 6.90645 13.6089 14.2954C6.22788 21.6844 2.25388 29.6934 4.74188 32.1894C5.07888 32.5264 5.51488 32.7404 6.03588 32.8554C5.33888 29.5024 9.16788 22.6414 15.5609 16.2474Z" fill="url(#paint0_linear_1339_728)"/>
<path d="M17.5221 18.207C23.9151 11.814 30.7761 7.98505 34.1221 8.68205C34.0151 8.16205 33.7921 7.72505 33.4561 7.38805C33.1191 7.05105 32.6821 6.83705 32.1621 6.72205C28.8161 6.02505 21.9551 9.85405 15.5621 16.247C9.1681 22.641 5.3391 29.502 6.0441 32.847C6.1511 33.368 6.3741 33.805 6.7101 34.142C7.0471 34.478 7.4831 34.692 8.0041 34.808C7.3001 31.462 11.1281 24.6 17.5221 18.207Z" fill="url(#paint1_linear_1339_728)"/>
<path d="M19.4818 20.168C25.8748 13.774 32.7278 9.94601 36.0818 10.642C35.9748 10.122 35.7518 9.68501 35.4158 9.34801C35.0788 9.01101 34.6428 8.79801 34.1218 8.68201C30.7758 7.98501 23.9148 11.814 17.5218 18.207C11.1278 24.601 7.29977 31.462 7.99577 34.807C8.10377 35.328 8.32577 35.765 8.66177 36.102C8.99877 36.439 9.43577 36.653 9.95677 36.768C9.25977 33.414 13.0878 26.561 19.4818 20.168Z" fill="url(#paint2_linear_1339_728)"/>
<path d="M21.4419 22.1287C27.8349 15.7347 34.6959 11.9067 38.0419 12.6037C37.9349 12.0827 37.7129 11.6467 37.3759 11.3097C37.0389 10.9727 36.6029 10.7577 36.0819 10.6427C32.7359 9.94675 25.8749 13.7747 19.4819 20.1687C13.0879 26.5617 9.25993 33.4147 9.95693 36.7687C10.0639 37.2887 10.2859 37.7257 10.6229 38.0627C10.9599 38.3997 11.3959 38.6137 11.9169 38.7287C11.2199 35.3747 15.0479 28.5147 21.4419 22.1287Z" fill="url(#paint3_linear_1339_728)"/>
<path d="M23.3951 24.0801C29.7881 17.6871 36.6491 13.8581 39.9951 14.5551C39.8881 14.0351 39.6651 13.5981 39.3291 13.2611C38.9921 12.9241 38.5551 12.7101 38.0351 12.5951C34.6891 11.8981 27.8281 15.7271 21.4351 22.1201C15.0411 28.5141 11.2121 35.3741 11.9091 38.7201C12.0161 39.2411 12.2391 39.6781 12.5751 40.0141C12.9121 40.3511 13.3491 40.5661 13.8691 40.6811C13.1721 37.3351 17.0091 30.4731 23.3951 24.0801Z" fill="url(#paint4_linear_1339_728)"/>
<path d="M25.355 26.0411C31.748 19.6471 38.609 15.8181 41.955 16.5151C41.848 15.9951 41.625 15.5581 41.289 15.2211C40.952 14.8841 40.516 14.6701 39.995 14.5551C36.649 13.8581 29.788 17.6871 23.395 24.0801C17.009 30.4741 13.172 37.3351 13.877 40.6801C13.984 41.2011 14.207 41.6381 14.543 41.9751C14.88 42.3121 15.316 42.5261 15.837 42.6411C15.133 39.2951 18.961 32.4341 25.355 26.0411Z" fill="url(#paint5_linear_1339_728)"/>
<path d="M43.2489 17.181C42.9119 16.844 42.4759 16.631 41.9549 16.515C38.6089 15.818 31.7479 19.647 25.3549 26.041C18.9609 32.434 15.1329 39.295 15.8369 42.641C15.9439 43.161 16.1669 43.598 16.5029 43.935C18.9989 46.431 27.0089 42.465 34.3979 35.075C41.7779 27.687 45.7449 19.678 43.2489 17.181Z" fill="url(#paint6_linear_1339_728)"/>
<path d="M15.5609 16.2474C21.9549 9.85445 28.8159 6.02545 32.1609 6.73045C32.0539 6.20945 31.8319 5.77345 31.4959 5.43645C29.0069 2.93945 20.9899 6.90645 13.6089 14.2954C6.22788 21.6844 2.25388 29.6934 4.74188 32.1894C5.07888 32.5264 5.51488 32.7404 6.03588 32.8554C5.33888 29.5024 9.16788 22.6414 15.5609 16.2474ZM15.5609 16.2474C21.9549 9.85445 28.8159 6.02545 32.1609 6.72245C32.6819 6.83745 33.1189 7.05245 33.4559 7.38845C33.7929 7.72545 34.0149 8.16245 34.1219 8.68245M34.1219 8.68245C30.7759 7.98545 23.9149 11.8144 17.5219 18.2084M34.1219 8.68245C34.6419 8.79745 35.0789 9.01245 35.4159 9.34845C35.7529 9.68545 35.9749 10.1224 36.0819 10.6424M15.5619 16.2474C9.16788 22.6414 5.33888 29.5025 6.04388 32.8475C6.15088 33.3685 6.37388 33.8054 6.70988 34.1424C7.04688 34.4784 7.48288 34.6924 8.00388 34.8084C7.29988 31.4624 11.1279 24.6014 17.5219 18.2084M17.5219 18.2084C11.1279 24.6024 7.29988 31.4624 7.99588 34.8074C8.10388 35.3284 8.32588 35.7654 8.66188 36.1024C8.99888 36.4394 9.43588 36.6534 9.95688 36.7684M9.95688 36.7684C9.25988 33.4144 13.0879 26.5614 19.4819 20.1684M9.95688 36.7684C10.0629 37.2894 10.2859 37.7255 10.6229 38.0625C10.9599 38.3985 11.3959 38.6135 11.9169 38.7285C11.2199 35.3745 15.0479 28.5144 21.4419 22.1284C27.8349 15.7344 34.6959 11.9064 38.0419 12.6034C37.9359 12.0824 37.7129 11.6464 37.3759 11.3094C37.0389 10.9724 36.6019 10.7574 36.0819 10.6424M36.0819 10.6424C32.7279 9.94645 25.8749 13.7744 19.4819 20.1684M36.0819 10.6424C32.7359 9.94645 25.8749 13.7744 19.4819 20.1684M23.3949 24.0805C29.7879 17.6874 36.6489 13.8584 39.9949 14.5554M23.3949 24.0805C17.0089 30.4745 13.1719 37.3355 13.8689 40.6805C13.3489 40.5665 12.9119 40.3515 12.5749 40.0145C12.2379 39.6785 12.0159 39.2414 11.9089 38.7204C11.2119 35.3744 15.0409 28.5144 21.4339 22.1204C27.8279 15.7274 34.6879 11.8984 38.0339 12.5954C38.5549 12.7104 38.9919 12.9254 39.3289 13.2614C39.6659 13.5984 39.8879 14.0344 39.9949 14.5554M23.3949 24.0805C17.0089 30.4745 13.1719 37.3355 13.8769 40.6805C13.9839 41.2015 14.2069 41.6384 14.5429 41.9754C14.8799 42.3124 15.3159 42.5264 15.8369 42.6414M39.9949 14.5554C40.5149 14.6704 40.9519 14.8854 41.2889 15.2214C41.6259 15.5584 41.8479 15.9954 41.9549 16.5154M15.8369 42.6414C15.1329 39.2954 18.9609 32.4344 25.3549 26.0414C31.7479 19.6474 38.6089 15.8184 41.9549 16.5154M15.8369 42.6414C15.9439 43.1614 16.1659 43.5984 16.5029 43.9354C18.9989 46.4314 27.0079 42.4655 34.3979 35.0765C41.7789 27.6875 45.7449 19.6784 43.2489 17.1814C42.9119 16.8454 42.4749 16.6304 41.9549 16.5154" stroke="#18181B" stroke-linecap="round" stroke-linejoin="round"/>
</g>
<defs>
<linearGradient id="paint0_linear_1339_728" x1="23.9979" y1="4.68945" x2="23.9979" y2="44.6824" gradientUnits="userSpaceOnUse">
<stop stop-color="#FDFFB1"/>
<stop offset="1" stop-color="#D3FFAF"/>
</linearGradient>
<linearGradient id="paint1_linear_1339_728" x1="23.9981" y1="4.68905" x2="23.9981" y2="44.682" gradientUnits="userSpaceOnUse">
<stop stop-color="#FDFFB1"/>
<stop offset="1" stop-color="#D3FFAF"/>
</linearGradient>
<linearGradient id="paint2_linear_1339_728" x1="23.9978" y1="4.68901" x2="23.9978" y2="44.682" gradientUnits="userSpaceOnUse">
<stop stop-color="#FDFFB1"/>
<stop offset="1" stop-color="#D3FFAF"/>
</linearGradient>
<linearGradient id="paint3_linear_1339_728" x1="23.9979" y1="4.68975" x2="23.9979" y2="44.6827" gradientUnits="userSpaceOnUse">
<stop stop-color="#FDFFB1"/>
<stop offset="1" stop-color="#D3FFAF"/>
</linearGradient>
<linearGradient id="paint4_linear_1339_728" x1="23.9981" y1="4.68909" x2="23.9981" y2="44.6821" gradientUnits="userSpaceOnUse">
<stop stop-color="#FDFFB1"/>
<stop offset="1" stop-color="#D3FFAF"/>
</linearGradient>
<linearGradient id="paint5_linear_1339_728" x1="23.998" y1="4.68906" x2="23.998" y2="44.6821" gradientUnits="userSpaceOnUse">
<stop stop-color="#FDFFB1"/>
<stop offset="1" stop-color="#D3FFAF"/>
</linearGradient>
<linearGradient id="paint6_linear_1339_728" x1="23.9979" y1="4.68902" x2="23.9979" y2="44.682" gradientUnits="userSpaceOnUse">
<stop stop-color="#FDFFB1"/>
<stop offset="1" stop-color="#D3FFAF"/>
</linearGradient>
<clipPath id="clip0_1339_728">
<rect width="48" height="48" fill="white" transform="translate(0 0.689453)"/>
</clipPath>
</defs>
</svg>
