<svg width="44" height="45" viewBox="0 0 44 45" fill="none" xmlns="http://www.w3.org/2000/svg">
<g clip-path="url(#clip0_1339_220)">
<g clip-path="url(#clip1_1339_220)">
<g clip-path="url(#clip2_1339_220)">
<mask id="mask0_1339_220" style="mask-type:luminance" maskUnits="userSpaceOnUse" x="0" y="0" width="44" height="45">
<path d="M0 0.169922H44V44.1699H0V0.169922Z" fill="white"/>
</mask>
<g mask="url(#mask0_1339_220)">
<path d="M0.858977 41.9169H4.29498C4.52262 41.9169 4.74096 41.8265 4.90203 41.6656C5.06309 41.5048 5.15371 41.2865 5.15398 41.0589V40.1989H7.72998C7.95762 40.1989 8.17596 40.1085 8.33703 39.9476C8.49809 39.7868 8.58871 39.5685 8.58898 39.3409V38.6969L14.029 39.1389C14.2492 39.1452 14.4634 39.0667 14.6274 38.9197C14.7915 38.7727 14.8929 38.5684 14.9107 38.3488C14.9285 38.1293 14.8614 37.9112 14.7232 37.7397C14.585 37.5682 14.3863 37.4562 14.168 37.4269L8.58798 36.9739V28.1089C9.85798 27.9269 11.301 27.3619 12.127 26.4429C12.8266 25.6607 13.7501 25.1129 14.772 24.8739C16.702 24.4399 18.608 25.0629 19.87 26.5419C20.769 27.5939 21.944 28.1739 23.179 28.1739H26.284C27.231 28.1739 28.002 28.9439 28.002 29.8919C28.002 30.8339 27.242 31.6099 26.284 31.6099H18.554C18.3333 31.6205 18.1252 31.7157 17.9728 31.8756C17.8204 32.0355 17.7354 32.248 17.7354 32.4689C17.7354 32.6898 17.8204 32.9022 17.9728 33.0622C18.1252 33.2221 18.3333 33.3172 18.554 33.3279H26.284C26.9082 33.3287 27.5207 33.159 28.0555 32.837C28.5902 32.515 29.0267 32.053 29.318 31.5009L39.558 25.7899C39.7654 25.668 39.9952 25.5889 40.2337 25.5571C40.4722 25.5254 40.7146 25.5417 40.9467 25.6051C41.1789 25.6684 41.396 25.7776 41.5852 25.9261C41.7745 26.0746 41.9322 26.2595 42.049 26.4699C42.2682 26.8614 42.3331 27.3208 42.2307 27.7577C42.1284 28.1946 41.8663 28.5774 41.496 28.8309L26.916 38.4609L21.017 37.9819C20.7968 37.9756 20.5826 38.054 20.4185 38.201C20.2545 38.348 20.1531 38.5524 20.1352 38.7719C20.1174 38.9915 20.1845 39.2095 20.3227 39.3811C20.4609 39.5526 20.6597 39.6646 20.878 39.6939C20.878 39.6939 27.12 40.1999 27.143 40.1999C27.311 40.1999 27.476 40.1499 27.616 40.0569C27.616 40.0569 42.456 30.2549 42.461 30.2529C43.188 29.7595 43.7033 29.0112 43.9052 28.1561C44.107 27.301 43.9806 26.4013 43.551 25.6349C43.3236 25.225 43.0166 24.8646 42.648 24.575C42.2794 24.2853 41.8567 24.0722 41.4046 23.9481C40.9526 23.824 40.4803 23.7915 40.0155 23.8524C39.5507 23.9134 39.1028 24.0665 38.698 24.3029L29.674 29.3349C29.5414 28.5312 29.1279 27.8006 28.5071 27.2732C27.8863 26.7458 27.0985 26.4559 26.284 26.4549H23.18C22.456 26.4549 21.744 26.0899 21.178 25.4259C19.495 23.4539 16.958 22.6209 14.395 23.1979C13.0262 23.5161 11.7885 24.2479 10.85 25.2939C10.374 25.8239 9.44498 26.2039 8.58998 26.3669V25.5969C8.59011 25.4839 8.56795 25.372 8.52478 25.2676C8.48161 25.1632 8.41827 25.0684 8.33838 24.9885C8.2585 24.9086 8.16364 24.8452 8.05924 24.8021C7.95484 24.7589 7.84295 24.7367 7.72998 24.7369H5.15498V23.8789C5.15498 23.6508 5.06437 23.432 4.90309 23.2708C4.74181 23.1095 4.52306 23.0189 4.29498 23.0189H0.859977C0.632064 23.0191 0.413576 23.1099 0.252511 23.2711C0.091446 23.4324 0.000976408 23.651 0.000976563 23.8789V41.0589C0.000976563 41.5329 0.384977 41.9169 0.858977 41.9169ZM6.87198 26.4559V38.4819H5.15398V26.4559H6.87198ZM1.71798 24.7379H3.43598V40.1999H1.71798V24.7379ZM28.862 9.27588C27.7233 9.2772 26.6316 9.73013 25.8264 10.5353C25.0212 11.3405 24.5683 12.4322 24.567 13.5709C24.5683 14.7096 25.0212 15.8013 25.8264 16.6064C26.6316 17.4116 27.7233 17.8646 28.862 17.8659C30.0007 17.8646 31.0924 17.4116 31.8975 16.6064C32.7027 15.8013 33.1557 14.7096 33.157 13.5709C33.1557 12.4322 32.7027 11.3405 31.8975 10.5353C31.0924 9.73013 30.0007 9.2772 28.862 9.27588ZM28.862 16.1479C28.1788 16.1471 27.5237 15.8753 27.0406 15.3922C26.5575 14.9091 26.2858 14.2541 26.285 13.5709C26.2858 12.8877 26.5575 12.2327 27.0406 11.7495C27.5237 11.2664 28.1788 10.9947 28.862 10.9939C29.5452 10.9947 30.2002 11.2664 30.6833 11.7495C31.1664 12.2327 31.4382 12.8877 31.439 13.5709C31.4382 14.2541 31.1664 14.9091 30.6833 15.3922C30.2002 15.8753 29.5452 16.1471 28.862 16.1479Z" fill="#18181B"/>
<path d="M39.3911 9.47481L37.6731 6.49981C37.5591 6.30269 37.3715 6.1589 37.1516 6.10002C36.9316 6.04114 36.6973 6.072 36.5001 6.18581L34.6481 7.25581C33.7279 6.40637 32.6319 5.76997 31.4381 5.39181V3.26281C31.4381 3.03516 31.3477 2.81682 31.1868 2.65576C31.0259 2.49469 30.8077 2.40407 30.5801 2.40381H27.1441C26.916 2.40381 26.6972 2.49442 26.536 2.6557C26.3747 2.81698 26.2841 3.03572 26.2841 3.26381V5.39181C25.091 5.76995 23.9958 6.40598 23.0761 7.25481L21.2241 6.18481C21.0266 6.07103 20.792 6.0403 20.5719 6.09936C20.3517 6.15843 20.1641 6.30245 20.0501 6.49981L18.3331 9.47481C18.2192 9.67217 18.1883 9.90665 18.2472 10.1268C18.3061 10.3469 18.4499 10.5346 18.6471 10.6488L20.5041 11.7218C20.3539 12.3271 20.276 12.9481 20.2721 13.5718C20.2721 14.1618 20.3491 14.7718 20.5041 15.4208L18.6471 16.4938C18.4499 16.6078 18.3061 16.7954 18.2473 17.0153C18.1884 17.2353 18.2192 17.4696 18.3331 17.6668L20.0501 20.6428C20.1065 20.7405 20.1816 20.8262 20.2712 20.8949C20.3608 20.9636 20.463 21.0139 20.572 21.0431C20.681 21.0722 20.7947 21.0796 20.9066 21.0648C21.0185 21.05 21.1264 21.0133 21.2241 20.9568L23.0761 19.8868C23.9959 20.736 25.0915 21.3721 26.2851 21.7498V23.8788C26.2851 24.3538 26.6701 24.7388 27.1441 24.7388H30.5801C30.693 24.7388 30.8047 24.7166 30.909 24.6733C31.0133 24.6301 31.108 24.5667 31.1878 24.4869C31.2676 24.407 31.3309 24.3122 31.374 24.2078C31.4171 24.1035 31.4392 23.9917 31.4391 23.8788V21.7498C32.6326 21.3721 33.7283 20.736 34.6481 19.8868L36.5001 20.9568C36.6973 21.0706 36.9316 21.1015 37.1516 21.0426C37.3715 20.9837 37.5591 20.8399 37.6731 20.6428L39.3911 17.6668C39.5049 17.4696 39.5357 17.2353 39.4769 17.0153C39.418 16.7954 39.2742 16.6078 39.0771 16.4938L37.2201 15.4198C37.3761 14.7698 37.4521 14.1598 37.4521 13.5698C37.4521 12.9798 37.3761 12.3698 37.2201 11.7198L39.0771 10.6478C39.2742 10.5336 39.4181 10.3459 39.4769 10.1258C39.5358 9.90565 39.5049 9.67117 39.3911 9.47381V9.47481ZM35.7861 10.5648C35.6174 10.6622 35.4869 10.814 35.4158 10.9953C35.3448 11.1767 35.3375 11.3768 35.3951 11.5628C35.6261 12.3108 35.7341 12.9488 35.7341 13.5708C35.7341 14.1928 35.6261 14.8308 35.3941 15.5788C35.3367 15.765 35.3443 15.9651 35.4155 16.1464C35.4867 16.3277 35.6174 16.4794 35.7861 16.5768L37.4741 17.5508L36.6151 19.0388L34.9381 18.0708C34.7695 17.9734 34.5728 17.9361 34.3803 17.965C34.1877 17.9939 34.0107 18.0872 33.8781 18.2298C32.9457 19.2419 31.7292 19.9485 30.3881 20.2568C30.1987 20.3004 30.0296 20.4069 29.9085 20.5589C29.7874 20.7109 29.7213 20.8995 29.7211 21.0938V23.0198H28.0031V21.0938C28.0028 20.8995 27.9368 20.7109 27.8156 20.5589C27.6945 20.4069 27.5255 20.3004 27.3361 20.2568C25.995 19.9485 24.7784 19.2419 23.8461 18.2298C23.7136 18.0871 23.5366 17.9935 23.344 17.9644C23.1515 17.9354 22.9548 17.9725 22.7861 18.0698L21.1091 19.0398L20.2491 17.5508L21.9381 16.5768C22.1067 16.4794 22.2371 16.3275 22.308 16.1462C22.3789 15.9648 22.386 15.7647 22.3281 15.5788C22.0981 14.8308 21.9901 14.1928 21.9901 13.5708C21.9901 12.9488 22.0981 12.3108 22.3291 11.5628C22.3866 11.3769 22.3793 11.177 22.3082 10.9958C22.2372 10.8147 22.1066 10.663 21.9381 10.5658L20.2501 9.58981L21.1091 8.10181L22.7861 9.07081C22.9548 9.16809 23.1515 9.20524 23.344 9.17618C23.5366 9.14711 23.7136 9.05355 23.8461 8.91081C24.7787 7.89923 25.9952 7.19303 27.3361 6.88481C27.5257 6.84132 27.695 6.73473 27.8162 6.58249C27.9373 6.43025 28.0032 6.24138 28.0031 6.04681V4.12181H29.7211V6.04781C29.7211 6.44781 29.9981 6.79581 30.3881 6.88581C31.729 7.19409 32.9454 7.90027 33.8781 8.91181C34.0103 9.05487 34.1873 9.14865 34.38 9.17773C34.5727 9.20681 34.7695 9.16945 34.9381 9.07181L36.6151 8.10281L37.4751 9.59081L35.7861 10.5648ZM16.6641 38.5678C16.6641 38.6807 16.6864 38.7926 16.7297 38.8969C16.773 39.0012 16.8364 39.096 16.9163 39.1758C16.9962 39.2556 17.0911 39.3189 17.1954 39.362C17.2998 39.4052 17.4116 39.4274 17.5246 39.4273C17.6375 39.4272 17.7493 39.4049 17.8536 39.3617C17.9579 39.3184 18.0527 39.255 18.1325 39.1751C18.2123 39.0952 18.2756 39.0003 18.3188 38.896C18.3619 38.7916 18.3841 38.6797 18.3841 38.5668C18.3841 38.3387 18.2935 38.12 18.1322 37.9587C17.9709 37.7974 17.7521 37.7068 17.5241 37.7068C17.296 37.7068 17.0772 37.7974 16.916 37.9587C16.7547 38.12 16.6641 38.3397 16.6641 38.5678Z" fill="#18181B"/>
</g>
</g>
</g>
</g>
<defs>
<clipPath id="clip0_1339_220">
<rect width="44" height="44" fill="white" transform="translate(0 0.169922)"/>
</clipPath>
<clipPath id="clip1_1339_220">
<rect width="44" height="44" fill="white" transform="translate(0 0.169922)"/>
</clipPath>
<clipPath id="clip2_1339_220">
<rect width="44" height="44" fill="white" transform="translate(0 0.169922)"/>
</clipPath>
</defs>
</svg>
