<svg width="44" height="45" viewBox="0 0 44 45" fill="none" xmlns="http://www.w3.org/2000/svg">
<g clip-path="url(#clip0_1339_201)">
<g clip-path="url(#clip1_1339_201)">
<g clip-path="url(#clip2_1339_201)">
<mask id="mask0_1339_201" style="mask-type:luminance" maskUnits="userSpaceOnUse" x="0" y="0" width="44" height="45">
<path d="M0 0.169922H44V44.1699H0V0.169922Z" fill="white"/>
</mask>
<g mask="url(#mask0_1339_201)">
<path d="M16.328 44.1699C17.0115 44.1691 17.6668 43.8973 18.1501 43.414C18.6334 42.9307 18.9052 42.2754 18.906 41.5919V32.9979C18.9052 32.3144 18.6334 31.6592 18.1501 31.1759C17.6668 30.6926 17.0115 30.4207 16.328 30.4199H11.172C10.9439 30.4199 10.7252 30.3293 10.5639 30.168C10.4026 30.0068 10.312 29.788 10.312 29.5599V14.7799C10.312 14.5518 10.4026 14.3331 10.5639 14.1718C10.7252 14.0105 10.9439 13.9199 11.172 13.9199H16.328C17.0115 13.9191 17.6668 13.6473 18.1501 13.164C18.6334 12.6807 18.9052 12.0254 18.906 11.3419V2.74792C18.9052 2.06444 18.6334 1.40917 18.1501 0.925878C17.6668 0.442581 17.0115 0.170716 16.328 0.169922L9.45304 0.169922C4.24104 0.169922 3.51854e-05 4.40992 3.51854e-05 9.62292V17.1859C0.00763863 17.4088 0.101523 17.62 0.26188 17.775C0.422237 17.93 0.636526 18.0166 0.859535 18.0166C1.08254 18.0166 1.29683 17.93 1.45719 17.775C1.61755 17.62 1.71143 17.4088 1.71904 17.1859V9.62292C1.71904 5.35792 5.18904 1.88892 9.45304 1.88892H12.031V12.1999H11.171C10.4877 12.201 9.83272 12.473 9.34964 12.9562C8.86656 13.4395 8.59483 14.0946 8.59404 14.7779V29.5599C8.59483 30.2434 8.86669 30.8987 9.34999 31.382C9.83329 31.8653 10.4886 32.1371 11.172 32.1379H12.032V42.4499H9.45203C5.18704 42.4499 1.71804 38.9799 1.71804 34.7159V24.0599C1.72197 23.9446 1.70265 23.8296 1.66123 23.7219C1.61981 23.6142 1.55713 23.5159 1.47693 23.4329C1.39673 23.35 1.30064 23.284 1.1944 23.2389C1.08816 23.1938 0.97394 23.1706 0.858535 23.1706C0.74313 23.1706 0.628906 23.1938 0.522666 23.2389C0.416426 23.284 0.320344 23.35 0.240144 23.4329C0.159943 23.5159 0.0972648 23.6142 0.0558423 23.7219C0.0144198 23.8296 -0.00489952 23.9446 -0.000964815 24.0599V34.7159C3.51854e-05 39.9289 4.24004 44.1699 9.45304 44.1699H16.328ZM13.75 1.88892H16.328C16.5561 1.88892 16.7749 1.97953 16.9361 2.14081C17.0974 2.30209 17.188 2.52084 17.188 2.74892V11.3419C17.188 11.57 17.0974 11.7888 16.9361 11.95C16.7749 12.1113 16.5561 12.2019 16.328 12.2019H13.75V1.88892ZM13.75 32.1389H16.328C16.5561 32.1389 16.7749 32.2295 16.9361 32.3908C17.0974 32.5521 17.188 32.7708 17.188 32.9989V41.5919C17.188 41.82 17.0974 42.0388 16.9361 42.2C16.7749 42.3613 16.5561 42.4519 16.328 42.4519H13.75V32.1389Z" fill="#18181B"/>
<path d="M33.6882 22.1698V15.2948C33.6882 15.0667 33.5976 14.848 33.4363 14.6867C33.275 14.5254 33.0563 14.4348 32.8282 14.4348H25.7812V11.8568C25.7808 11.687 25.7301 11.5212 25.6355 11.3802C25.541 11.2392 25.4069 11.1293 25.25 11.0644C25.0931 10.9995 24.9206 10.9824 24.754 11.0154C24.5875 11.0484 24.4345 11.13 24.3142 11.2498L17.4392 18.1248C17.3594 18.2046 17.2961 18.2993 17.2529 18.4035C17.2097 18.5078 17.1875 18.6195 17.1875 18.7323C17.1875 18.8451 17.2097 18.9569 17.2529 19.0611C17.2961 19.1653 17.3594 19.26 17.4392 19.3398L24.3142 26.2148C24.4345 26.3347 24.5876 26.4163 24.7543 26.4492C24.9209 26.4822 25.0935 26.4651 25.2505 26.4001C25.4074 26.335 25.5415 26.225 25.636 26.0838C25.7304 25.9426 25.7809 25.7767 25.7812 25.6068V23.0298H32.8282C33.0561 23.0298 33.2747 22.9393 33.4359 22.7783C33.5972 22.6172 33.6879 22.3977 33.6882 22.1698ZM31.9682 21.3098H24.9222C24.6941 21.3098 24.4754 21.4004 24.3141 21.5617C24.1528 21.723 24.0622 21.9417 24.0622 22.1698V23.5328L19.2622 18.7328L24.0622 13.9328V15.2948C24.0622 15.7698 24.4472 16.1548 24.9222 16.1548H31.9692V21.3108L31.9682 21.3098Z" fill="#18181B"/>
<path d="M36.873 21.5617C36.7527 21.4418 36.5996 21.3602 36.4329 21.3273C36.2663 21.2943 36.0937 21.3114 35.9368 21.3764C35.7798 21.4415 35.6457 21.5515 35.5513 21.6927C35.4568 21.8339 35.4063 21.9998 35.406 22.1697V24.7477H28.36C28.1321 24.748 27.9136 24.8387 27.7526 24.9999C27.5915 25.1612 27.501 25.3798 27.501 25.6077V32.4817C27.501 32.9567 27.886 33.3417 28.361 33.3417H35.407V35.9197C35.4073 36.0895 35.4578 36.2555 35.5522 36.3967C35.6467 36.5379 35.7808 36.6479 35.9378 36.7129C36.0947 36.778 36.2673 36.7951 36.4339 36.7621C36.6006 36.7291 36.7537 36.6476 36.874 36.5277L43.749 29.6527C43.829 29.5729 43.8924 29.4781 43.9357 29.3738C43.9789 29.2695 44.0012 29.1576 44.0012 29.0447C44.0012 28.9317 43.9789 28.8199 43.9357 28.7156C43.8924 28.6113 43.829 28.5165 43.749 28.4367L36.873 21.5617ZM37.125 33.8447V32.4817C37.1248 32.2538 37.034 32.0353 36.8728 31.8742C36.7115 31.7132 36.4929 31.6227 36.265 31.6227H29.22V26.4667H36.267C36.4949 26.4664 36.7134 26.3757 36.8745 26.2145C37.0356 26.0532 37.126 25.8346 37.126 25.6067V24.2447L41.926 29.0447L37.125 33.8447ZM0.860023 21.4827C1.08811 21.4826 1.3068 21.3918 1.46799 21.2305C1.62918 21.0691 1.71966 20.8503 1.71952 20.6222C1.71939 20.3941 1.62866 20.1754 1.46728 20.0142C1.30591 19.853 1.08711 19.7626 0.859023 19.7627C0.630937 19.7627 0.412193 19.8533 0.250912 20.0146C0.0896303 20.1759 -0.000976562 20.3946 -0.000976562 20.6227C-0.000976562 20.8508 0.0896303 21.0695 0.250912 21.2308C0.412193 21.3921 0.631937 21.4827 0.860023 21.4827Z" fill="#18181B"/>
</g>
</g>
</g>
</g>
<defs>
<clipPath id="clip0_1339_201">
<rect width="44" height="44" fill="white" transform="translate(0 0.169922)"/>
</clipPath>
<clipPath id="clip1_1339_201">
<rect width="44" height="44" fill="white" transform="translate(0 0.169922)"/>
</clipPath>
<clipPath id="clip2_1339_201">
<rect width="44" height="44" fill="white" transform="translate(0 0.169922)"/>
</clipPath>
</defs>
</svg>
