<svg width="44" height="45" viewBox="0 0 44 45" fill="none" xmlns="http://www.w3.org/2000/svg">
<g clip-path="url(#clip0_1339_182)">
<g clip-path="url(#clip1_1339_182)">
<g clip-path="url(#clip2_1339_182)">
<mask id="mask0_1339_182" style="mask-type:luminance" maskUnits="userSpaceOnUse" x="0" y="0" width="44" height="45">
<path d="M0 0.169922H44V44.1699H0V0.169922Z" fill="white"/>
</mask>
<g mask="url(#mask0_1339_182)">
<path d="M9.36706 19.0759C10.0506 19.0754 10.706 18.8036 11.1894 18.3203C11.6728 17.8369 11.9445 17.1815 11.9451 16.4979C11.9445 15.8144 11.6728 15.1589 11.1894 14.6756C10.706 14.1922 10.0506 13.9205 9.36706 13.9199C8.68358 13.9207 8.02831 14.1926 7.54502 14.6759C7.06172 15.1592 6.78986 15.8144 6.78906 16.4979C6.78986 17.1814 7.06172 17.8367 7.54502 18.32C8.02831 18.8033 8.68358 19.0751 9.36706 19.0759ZM9.36706 15.6389C9.48 15.639 9.59182 15.6613 9.69613 15.7046C9.80045 15.7479 9.89522 15.8113 9.97503 15.8912C10.0548 15.9711 10.1181 16.0659 10.1613 16.1703C10.2044 16.2746 10.2266 16.3865 10.2266 16.4994C10.2265 16.6124 10.2042 16.7242 10.1609 16.8285C10.1176 16.9328 10.0542 17.0276 9.97432 17.1074C9.89442 17.1872 9.79957 17.2505 9.69521 17.2936C9.59084 17.3368 9.479 17.359 9.36606 17.3589C9.13798 17.3588 8.91928 17.2681 8.7581 17.1067C8.59691 16.9453 8.50643 16.7265 8.50656 16.4984C8.5067 16.2703 8.59743 16.0516 8.7588 15.8905C8.92018 15.7293 9.13898 15.6388 9.36706 15.6389ZM18.8201 16.4979C18.8195 15.8144 18.5478 15.1589 18.0644 14.6756C17.581 14.1922 16.9256 13.9205 16.2421 13.9199C15.5585 13.9205 14.9031 14.1922 14.4197 14.6756C13.9364 15.1589 13.6646 15.8144 13.6641 16.4979C13.6646 17.1815 13.9364 17.8369 14.4197 18.3203C14.9031 18.8036 15.5585 19.0754 16.2421 19.0759C16.9256 19.0754 17.581 18.8036 18.0644 18.3203C18.5478 17.8369 18.8195 17.1815 18.8201 16.4979ZM15.3831 16.4979C15.3833 16.2698 15.4742 16.0512 15.6357 15.8901C15.7971 15.729 16.016 15.6387 16.2441 15.6389C16.4721 15.6392 16.6908 15.73 16.8519 15.8915C17.013 16.053 17.1033 16.2718 17.1031 16.4999C17.1029 16.6129 17.0806 16.7247 17.0372 16.829C16.9939 16.9332 16.9304 17.028 16.8505 17.1077C16.7705 17.1875 16.6756 17.2507 16.5712 17.2938C16.4669 17.3369 16.355 17.3591 16.2421 17.3589C16.1291 17.3588 16.0173 17.3364 15.913 17.2931C15.8087 17.2497 15.714 17.1863 15.6342 17.1063C15.5545 17.0264 15.4912 16.9315 15.4481 16.8271C15.405 16.7227 15.3829 16.6109 15.3831 16.4979ZM25.6951 16.4979C25.6945 15.8144 25.4228 15.1589 24.9394 14.6756C24.456 14.1922 23.8006 13.9205 23.1171 13.9199C22.4335 13.9205 21.7781 14.1922 21.2947 14.6756C20.8114 15.1589 20.5396 15.8144 20.5391 16.4979C20.5396 17.1815 20.8114 17.8369 21.2947 18.3203C21.7781 18.8036 22.4335 19.0754 23.1171 19.0759C23.8006 19.0754 24.456 18.8036 24.9394 18.3203C25.4228 17.8369 25.6945 17.1815 25.6951 16.4979ZM22.2581 16.4979C22.2583 16.2698 22.3492 16.0512 22.5107 15.8901C22.6721 15.729 22.891 15.6387 23.1191 15.6389C23.3471 15.6392 23.5658 15.73 23.7269 15.8915C23.888 16.053 23.9783 16.2718 23.9781 16.4999C23.9779 16.6129 23.9556 16.7247 23.9122 16.829C23.8689 16.9332 23.8054 17.028 23.7255 17.1077C23.6455 17.1875 23.5506 17.2507 23.4462 17.2938C23.3419 17.3369 23.23 17.3591 23.1171 17.3589C23.0041 17.3588 22.8923 17.3364 22.788 17.2931C22.6837 17.2497 22.589 17.1863 22.5092 17.1063C22.4295 17.0264 22.3662 16.9315 22.3231 16.8271C22.28 16.7227 22.2579 16.6109 22.2581 16.4979Z" fill="#18181B"/>
<path d="M31.9731 12.1119C30.0731 5.29592 23.8221 0.169922 16.2421 0.169922C13.5491 0.169922 10.8821 0.838922 8.52513 2.10492C8.42073 2.15545 8.32763 2.22656 8.25143 2.314C8.17522 2.40144 8.11749 2.50338 8.08171 2.61371C8.04593 2.72403 8.03283 2.84046 8.04321 2.95597C8.05358 3.07149 8.08722 3.18372 8.14209 3.2859C8.19696 3.38808 8.27193 3.47811 8.3625 3.55056C8.45306 3.62302 8.55734 3.67641 8.66908 3.70752C8.78081 3.73863 8.89768 3.74682 9.01266 3.73159C9.12764 3.71637 9.23835 3.67804 9.33813 3.61892C11.4617 2.48299 13.8328 1.88875 16.2411 1.88892C18.1609 1.88497 20.0625 2.26017 21.8368 2.99299C23.6112 3.72581 25.2233 4.80182 26.5808 6.15927C27.9382 7.51673 29.0142 9.12889 29.7471 10.9032C30.4799 12.6776 30.8551 14.5792 30.8511 16.4989C30.8511 24.5539 24.2971 31.1069 16.2411 31.1069H2.84813L5.91213 28.0439C6.07334 27.8827 6.16391 27.664 6.16391 27.4359C6.16391 27.2079 6.07334 26.9892 5.91213 26.8279C4.55115 25.4746 3.47209 23.8648 2.73743 22.0916C2.00277 20.3185 1.62709 18.4172 1.63213 16.4979C1.63213 13.3589 2.61313 10.3679 4.46713 7.84792C4.58953 7.66386 4.63637 7.43974 4.59791 7.22207C4.55945 7.0044 4.43866 6.80989 4.2606 6.67892C4.08253 6.54794 3.86088 6.49056 3.64163 6.51868C3.42238 6.5468 3.22238 6.65825 3.08313 6.82992C1.01611 9.62872 -0.0950301 13.0186 -0.085869 16.4979C-0.0975934 20.5336 1.39646 24.4284 4.10413 27.4209L0.167131 31.3589C0.0473047 31.4792 -0.0342461 31.6322 -0.0672464 31.7988C-0.100247 31.9653 -0.0832198 32.1379 -0.0183113 32.2947C0.0465972 32.4516 0.156483 32.5858 0.297502 32.6803C0.43852 32.7748 0.604362 32.8255 0.774131 32.8259H12.0341C14.1341 39.3679 20.2581 44.1699 27.5861 44.1699H43.0551C43.2249 44.1695 43.3907 44.1188 43.5318 44.0243C43.6728 43.9298 43.7827 43.7956 43.8476 43.6387C43.9125 43.4819 43.9295 43.3093 43.8965 43.1428C43.8635 42.9762 43.782 42.8232 43.6621 42.7029L39.7241 38.7639C42.4316 35.7717 43.9256 31.8772 43.9141 27.8419C43.9141 20.2519 38.7781 14.0089 31.9731 12.1119ZM37.9161 38.1719C37.7549 38.3332 37.6644 38.5519 37.6644 38.7799C37.6644 39.008 37.7549 39.2266 37.9161 39.3879L40.9801 42.4509H27.5861C21.4181 42.4509 15.9241 38.5469 13.8491 32.8259H16.2421C25.2451 32.8259 32.5701 25.5009 32.5701 16.4979C32.5701 15.6729 32.5081 14.8499 32.3861 14.0379C35.2561 15.0293 37.7444 16.8928 39.5033 19.3678C41.2622 21.8428 42.2037 24.8056 42.1961 27.8419C42.1961 31.7439 40.6761 35.4129 37.9161 38.1719Z" fill="#18181B"/>
<path d="M6.10219 3.95068C5.98925 3.95068 5.87742 3.97293 5.77308 4.01615C5.66874 4.05937 5.57393 4.12271 5.49408 4.20257C5.41422 4.28243 5.35087 4.37724 5.30765 4.48158C5.26443 4.58592 5.24219 4.69775 5.24219 4.81068C5.24219 4.92362 5.26443 5.03545 5.30765 5.13979C5.35087 5.24413 5.41422 5.33894 5.49408 5.4188C5.57393 5.49865 5.66874 5.562 5.77308 5.60522C5.87742 5.64844 5.98925 5.67068 6.10219 5.67068C6.33027 5.67068 6.54902 5.58008 6.7103 5.4188C6.87158 5.25751 6.96219 5.03877 6.96219 4.81068C6.96219 4.5826 6.87158 4.36385 6.7103 4.20257C6.54902 4.04129 6.33027 3.95068 6.10219 3.95068Z" fill="#18181B"/>
</g>
</g>
</g>
</g>
<defs>
<clipPath id="clip0_1339_182">
<rect width="44" height="44" fill="white" transform="translate(0 0.169922)"/>
</clipPath>
<clipPath id="clip1_1339_182">
<rect width="44" height="44" fill="white" transform="translate(0 0.169922)"/>
</clipPath>
<clipPath id="clip2_1339_182">
<rect width="44" height="44" fill="white" transform="translate(0 0.169922)"/>
</clipPath>
</defs>
</svg>
