<svg width="44" height="45" viewBox="0 0 44 45" fill="none" xmlns="http://www.w3.org/2000/svg">
<g clip-path="url(#clip0_1339_238)">
<g clip-path="url(#clip1_1339_238)">
<g clip-path="url(#clip2_1339_238)">
<mask id="mask0_1339_238" style="mask-type:luminance" maskUnits="userSpaceOnUse" x="0" y="0" width="44" height="45">
<path d="M0 0.560059H44V44.5601H0V0.560059Z" fill="white"/>
</mask>
<g mask="url(#mask0_1339_238)">
<path d="M21.9997 13.365C22.2228 13.3649 22.4372 13.278 22.5975 13.1228C22.7577 12.9675 22.8514 12.756 22.8587 12.533V12.505C22.8587 12.3349 22.8082 12.1686 22.7137 12.0271C22.6191 11.8857 22.4848 11.7754 22.3275 11.7104C22.1703 11.6453 21.9974 11.6284 21.8305 11.6616C21.6637 11.6949 21.5104 11.7769 21.3902 11.8973C21.27 12.0176 21.1881 12.171 21.1551 12.3379C21.122 12.5047 21.1392 12.6777 21.2044 12.8348C21.2697 12.9919 21.3801 13.1262 21.5216 13.2206C21.6632 13.3149 21.8295 13.3652 21.9997 13.365Z" fill="#18181B"/>
<path d="M21.9998 44.5601C31.9378 44.5601 40.3048 36.2701 40.3048 26.2551C40.3048 22.9071 39.3638 19.6381 37.5768 16.7551L38.6648 15.6671C39.0641 15.2682 39.3808 14.7945 39.5969 14.2731C39.813 13.7518 39.9243 13.1929 39.9243 12.6286C39.9243 12.0642 39.813 11.5053 39.5969 10.984C39.3808 10.4626 39.0641 9.98894 38.6648 9.59006C38.2659 9.19079 37.7923 8.87405 37.2709 8.65794C36.7495 8.44184 36.1907 8.33061 35.6263 8.33061C35.0619 8.33061 34.5031 8.44184 33.9817 8.65794C33.4603 8.87405 32.9867 9.19079 32.5878 9.59006L31.4998 10.6801C29.8915 9.67874 28.1362 8.93572 26.2978 8.47806V5.71606H27.1578C27.8414 5.71553 28.4968 5.44375 28.9801 4.96039C29.4635 4.47704 29.7353 3.82162 29.7358 3.13806C29.7353 2.45432 29.4634 1.79875 28.9798 1.31537C28.4962 0.831987 27.8405 0.560323 27.1568 0.560059L16.8428 0.560059C16.1592 0.560588 15.5038 0.832368 15.0205 1.31572C14.5371 1.79908 14.2653 2.45449 14.2648 3.13806C14.2653 3.82162 14.5371 4.47704 15.0205 4.96039C15.5038 5.44375 16.1592 5.71553 16.8428 5.71606H17.7028V8.47806C15.864 8.93555 14.1084 9.67857 12.4998 10.6801L11.4118 9.59006C11.0129 9.19079 10.5393 8.87405 10.0179 8.65794C9.49653 8.44184 8.93768 8.33061 8.3733 8.33061C7.80892 8.33061 7.25008 8.44184 6.72871 8.65794C6.20735 8.87405 5.73368 9.19079 5.3348 9.59006C4.93553 9.98894 4.61879 10.4626 4.40268 10.984C4.18658 11.5053 4.07535 12.0642 4.07535 12.6286C4.07535 13.1929 4.18658 13.7518 4.40268 14.2731C4.61879 14.7945 4.93553 15.2682 5.3348 15.6671L6.4228 16.7551C4.6368 19.6381 3.6958 22.9071 3.6958 26.2551C3.6958 36.1931 11.9848 44.5601 21.9998 44.5601ZM21.9998 42.8411C13.0098 42.8411 5.4138 35.2461 5.4138 26.2551C5.4138 17.2451 12.9708 9.67006 21.9998 9.67006C30.9948 9.67006 38.5858 17.2151 38.5858 26.2561C38.5858 35.2461 30.9908 42.8421 21.9998 42.8421V42.8411ZM37.4498 10.8061C37.6893 11.0454 37.8794 11.3296 38.009 11.6424C38.1386 11.9552 38.2054 12.2905 38.2054 12.6291C38.2054 12.9677 38.1386 13.3029 38.009 13.6157C37.8794 13.9285 37.6893 14.2127 37.4498 14.4521L36.5868 15.3141C35.5461 13.9358 34.319 12.7088 32.9408 11.6681L33.8038 10.8061C34.0431 10.5664 34.3272 10.3763 34.64 10.2466C34.9528 10.1168 35.2882 10.0501 35.6268 10.0501C35.9654 10.0501 36.3008 10.1168 36.6136 10.2466C36.9264 10.3763 37.2105 10.5664 37.4498 10.8061ZM15.9848 3.13806C15.9848 2.91015 16.0753 2.69155 16.2363 2.5303C16.3974 2.36905 16.6159 2.27832 16.8438 2.27806H27.1568C27.3849 2.27806 27.6036 2.36867 27.7649 2.52995C27.9262 2.69123 28.0168 2.90997 28.0168 3.13806C28.0168 3.36614 27.9262 3.58489 27.7649 3.74617C27.6036 3.90745 27.3849 3.99806 27.1568 3.99806H16.8428C16.6147 3.99806 16.396 3.90745 16.2347 3.74617C16.0734 3.58489 15.9828 3.36614 15.9828 3.13806H15.9848ZM24.5778 5.71606V8.14006C22.8681 7.89166 21.1315 7.89166 19.4218 8.14006V5.71606H24.5778ZM6.5508 10.8061C6.79006 10.5664 7.07422 10.3763 7.38703 10.2466C7.69984 10.1168 8.03516 10.0501 8.3738 10.0501C8.71244 10.0501 9.04776 10.1168 9.36057 10.2466C9.67338 10.3763 9.95754 10.5664 10.1968 10.8061L11.0588 11.6681C9.68057 12.7088 8.45352 13.9358 7.4128 15.3141L6.5508 14.4521C6.31115 14.2128 6.12102 13.9286 5.9913 13.6158C5.86158 13.303 5.79481 12.9677 5.79481 12.6291C5.79481 12.2904 5.86158 11.9551 5.9913 11.6423C6.12102 11.3295 6.31115 11.0453 6.5508 10.8061Z" fill="#18181B"/>
<path d="M25.6246 12.1001C25.5152 12.0721 25.4014 12.0659 25.2896 12.0818C25.1778 12.0978 25.0702 12.1356 24.973 12.1931C24.8759 12.2507 24.791 12.3268 24.7232 12.4171C24.6554 12.5074 24.6061 12.6102 24.5781 12.7196C24.5501 12.829 24.5438 12.9429 24.5598 13.0546C24.5758 13.1664 24.6136 13.274 24.6711 13.3712C24.7286 13.4684 24.8047 13.5532 24.8951 13.621C24.9854 13.6888 25.0882 13.7381 25.1976 13.7661C27.1537 14.2681 28.9631 15.2262 30.4776 16.5621L28.6836 18.3561C28.5344 18.5197 28.4539 18.7345 28.4591 18.9558C28.4642 19.1772 28.5545 19.388 28.7112 19.5444C28.8679 19.7009 29.0789 19.7908 29.3003 19.7956C29.5216 19.8004 29.7363 19.7196 29.8996 19.5701L31.6896 17.7801C33.5494 19.9044 34.6634 22.5787 34.8616 25.3951H32.3126C32.1963 25.3895 32.0801 25.4076 31.971 25.4482C31.8619 25.4888 31.7622 25.5512 31.6779 25.6315C31.5936 25.7118 31.5265 25.8084 31.4806 25.9155C31.4348 26.0225 31.4111 26.1377 31.4111 26.2541C31.4111 26.3705 31.4348 26.4858 31.4806 26.5928C31.5265 26.6998 31.5936 26.7964 31.6779 26.8767C31.7622 26.957 31.8619 27.0194 31.971 27.06C32.0801 27.1007 32.1963 27.1187 32.3126 27.1131H34.8626C34.6835 29.9372 33.5765 32.623 31.7136 34.7531L29.8996 32.9391C29.7365 32.7871 29.5208 32.7043 29.2979 32.7082C29.075 32.7122 28.8623 32.8025 28.7047 32.9602C28.5471 33.1179 28.457 33.3307 28.4532 33.5536C28.4495 33.7765 28.5324 33.9922 28.6846 34.1551L30.4986 35.9701C28.3682 37.8322 25.6824 38.9385 22.8586 39.1171V36.5671C22.8642 36.4508 22.8462 36.3346 22.8055 36.2255C22.7649 36.1164 22.7025 36.0167 22.6222 35.9324C22.5419 35.8481 22.4453 35.781 22.3383 35.7352C22.2312 35.6893 22.116 35.6657 21.9996 35.6657C21.8832 35.6657 21.768 35.6893 21.6609 35.7352C21.5539 35.781 21.4573 35.8481 21.377 35.9324C21.2967 36.0167 21.2343 36.1164 21.1937 36.2255C21.153 36.3346 21.135 36.4508 21.1406 36.5671V39.1171C18.3168 38.9386 15.631 37.8323 13.5006 35.9701L15.3156 34.1551C15.4678 33.9922 15.5508 33.7765 15.547 33.5536C15.5432 33.3307 15.4531 33.1179 15.2955 32.9602C15.1379 32.8025 14.9252 32.7122 14.7023 32.7082C14.4794 32.7043 14.2637 32.7871 14.1006 32.9391L12.2856 34.7541C10.4235 32.6238 9.31715 29.938 9.1386 27.1141H11.6876C11.8039 27.1197 11.9201 27.1017 12.0292 27.061C12.1383 27.0204 12.238 26.958 12.3223 26.8777C12.4066 26.7974 12.4737 26.7008 12.5196 26.5938C12.5654 26.4868 12.5891 26.3715 12.5891 26.2551C12.5891 26.1387 12.5654 26.0235 12.5196 25.9165C12.4737 25.8094 12.4066 25.7128 12.3223 25.6325C12.238 25.5522 12.1383 25.4898 12.0292 25.4492C11.9201 25.4086 11.8039 25.3905 11.6876 25.3961H9.1386C9.33637 22.5795 10.45 19.9048 12.3096 17.7801L14.1006 19.5711C14.264 19.7205 14.4788 19.8011 14.7001 19.7961C14.9215 19.7912 15.1324 19.701 15.2889 19.5445C15.4455 19.3879 15.5356 19.177 15.5406 18.9556C15.5456 18.7343 15.465 18.5195 15.3156 18.3561L13.5226 16.5621C15.0371 15.2262 16.8465 14.2681 18.8026 13.7661C18.9155 13.7415 19.0223 13.6943 19.1165 13.6275C19.2108 13.5607 19.2906 13.4755 19.3512 13.3772C19.4119 13.2788 19.4521 13.1692 19.4694 13.055C19.4867 12.9408 19.4809 12.8242 19.4522 12.7123C19.4235 12.6004 19.3725 12.4954 19.3023 12.4036C19.2321 12.3118 19.1442 12.2351 19.0437 12.178C18.9432 12.121 18.8323 12.0848 18.7175 12.0716C18.6027 12.0583 18.4864 12.0684 18.3756 12.1011C12.0356 13.7241 7.3966 19.4911 7.3916 26.2461V26.2681C7.3966 34.3301 13.9546 40.8651 21.9996 40.8651C30.0276 40.8651 36.6026 34.3511 36.6096 26.2681V26.2451C36.6026 19.5111 31.9936 13.7321 25.6246 12.1011V12.1001Z" fill="#18181B"/>
<path d="M19.4219 26.255C19.4224 26.9386 19.6942 27.594 20.1776 28.0774C20.6609 28.5607 21.3163 28.8325 21.9999 28.833C23.1199 28.833 24.0759 28.115 24.4299 27.115H27.1569C27.385 27.115 27.6037 27.0244 27.765 26.8631C27.9263 26.7019 28.0169 26.4831 28.0169 26.255C28.0169 26.0269 27.9263 25.8082 27.765 25.6469C27.6037 25.4856 27.385 25.395 27.1569 25.395H24.4299C24.3007 25.0333 24.0928 24.7048 23.8211 24.4332C23.5494 24.1617 23.2207 23.954 22.8589 23.825V19.38C22.8589 19.1519 22.7683 18.9332 22.607 18.7719C22.4457 18.6106 22.227 18.52 21.9989 18.52C21.7708 18.52 21.5521 18.6106 21.3908 18.7719C21.2295 18.9332 21.1389 19.1519 21.1389 19.38V23.825C20.6368 24.0033 20.2022 24.3326 19.8946 24.7676C19.587 25.2027 19.4215 25.7222 19.4209 26.255H19.4219ZM21.9999 25.395C22.2283 25.395 22.4472 25.4857 22.6087 25.6472C22.7702 25.8087 22.8609 26.0277 22.8609 26.256C22.8609 26.4844 22.7702 26.7034 22.6087 26.8648C22.4472 27.0263 22.2283 27.117 21.9999 27.117C21.7718 27.1169 21.5531 27.0262 21.3919 26.8648C21.2307 26.7034 21.1403 26.4846 21.1404 26.2565C21.1405 26.0284 21.2313 25.8097 21.3926 25.6486C21.554 25.4874 21.7728 25.3969 22.0009 25.397L21.9999 25.395Z" fill="#18181B"/>
</g>
</g>
</g>
</g>
<defs>
<clipPath id="clip0_1339_238">
<rect width="44" height="44" fill="white" transform="translate(0 0.560059)"/>
</clipPath>
<clipPath id="clip1_1339_238">
<rect width="44" height="44" fill="white" transform="translate(0 0.560059)"/>
</clipPath>
<clipPath id="clip2_1339_238">
<rect width="44" height="44" fill="white" transform="translate(0 0.560059)"/>
</clipPath>
</defs>
</svg>
