<svg width="44" height="45" viewBox="0 0 44 45" fill="none" xmlns="http://www.w3.org/2000/svg">
<g clip-path="url(#clip0_1339_258)">
<g clip-path="url(#clip1_1339_258)">
<g clip-path="url(#clip2_1339_258)">
<mask id="mask0_1339_258" style="mask-type:luminance" maskUnits="userSpaceOnUse" x="0" y="0" width="44" height="45">
<path d="M0 0.560059H44V44.5601H0V0.560059Z" fill="white"/>
</mask>
<g mask="url(#mask0_1339_258)">
<path d="M22.0001 26.8071C20.8609 26.8085 19.7687 27.2616 18.9632 28.0672C18.1576 28.8727 17.7044 29.9649 17.7031 31.1041C17.7047 32.2432 18.158 33.3351 18.9635 34.1405C19.769 34.9458 20.8611 35.3988 22.0001 35.4001C23.1394 35.3988 24.2315 34.9457 25.0371 34.1401C25.8427 33.3345 26.2958 32.2424 26.2971 31.1031C26.2953 29.9642 25.8419 28.8726 25.0364 28.0674C24.2309 27.2623 23.139 26.8085 22.0001 26.8071ZM22.0001 33.6821C21.3166 33.6816 20.6611 33.4098 20.1778 32.9265C19.6944 32.4431 19.4227 31.7877 19.4221 31.1041C19.4224 30.4204 19.6941 29.7647 20.1774 29.2811C20.6608 28.7976 21.3164 28.5257 22.0001 28.5251C22.6839 28.5257 23.3394 28.7976 23.8228 29.2811C24.3062 29.7647 24.5779 30.4204 24.5781 31.1041C24.5776 31.7877 24.3058 32.4431 23.8225 32.9265C23.3391 33.4098 22.6837 33.6816 22.0001 33.6821Z" fill="#18181B"/>
<path d="M36.598 13.41C36.4761 10.7291 35.3934 8.18169 33.5479 6.23335C31.7024 4.28502 29.2173 3.06595 26.547 2.79901C26.3236 2.78325 26.1029 2.85522 25.9318 2.99963C25.7607 3.14405 25.6526 3.34951 25.6306 3.57234C25.6086 3.79518 25.6744 4.01781 25.8139 4.19291C25.9535 4.36801 26.1559 4.48177 26.378 4.51001C28.7417 4.73575 30.9325 5.8477 32.51 7.62241C34.0875 9.39713 34.9349 11.7031 34.882 14.077C34.8792 14.2776 34.9467 14.4729 35.0727 14.6291C35.1987 14.7852 35.3753 14.8924 35.572 14.932C38.87 15.598 42.282 18.615 42.282 22.511C42.282 26.631 38.426 30.245 34.032 30.245H30.54C30.4993 29.9115 30.4392 29.5806 30.36 29.254L32.219 28.181C32.4162 28.0668 32.56 27.8791 32.6189 27.659C32.6777 27.4389 32.6469 27.2044 32.533 27.007L30.815 24.03C30.701 23.8327 30.5133 23.6886 30.2932 23.6296C30.0731 23.5705 29.8385 23.6012 29.641 23.715L27.787 24.785C26.8668 23.9356 25.7708 23.2992 24.577 22.921V20.791C24.5767 20.5631 24.486 20.3446 24.3248 20.1835C24.1635 20.0225 23.9449 19.932 23.717 19.932H20.28C20.0519 19.932 19.8332 20.0226 19.6719 20.1839C19.5106 20.3452 19.42 20.5639 19.42 20.792V22.922C18.2265 23.2999 17.1309 23.936 16.211 24.785L14.358 23.715C14.1605 23.6012 13.9259 23.5705 13.7058 23.6296C13.4857 23.6886 13.298 23.8327 13.184 24.03L11.464 27.007C11.3502 27.2045 11.3195 27.4391 11.3786 27.6592C11.4376 27.8793 11.5816 28.067 11.779 28.181L13.638 29.254C13.556 29.594 13.497 29.924 13.458 30.244H8.594C6.77146 30.2419 5.02416 29.517 3.73533 28.2284C2.44651 26.9397 1.72138 25.1926 1.719 23.37C1.719 20.03 4.695 16.982 8.353 16.576C8.46814 16.5633 8.57953 16.5275 8.6805 16.4707C8.78146 16.4139 8.86994 16.3373 8.94061 16.2455C9.01129 16.1538 9.06272 16.0487 9.09183 15.9365C9.12093 15.8244 9.12711 15.7076 9.11 15.593C9.12263 14.4614 9.58062 13.3804 10.3847 12.5841C11.1889 11.7879 12.2743 11.3405 13.406 11.339C14.013 11.339 14.616 11.475 15.198 11.744C15.3098 11.7956 15.4314 11.8226 15.5546 11.8231C15.6777 11.8236 15.7995 11.7977 15.9118 11.747C16.024 11.6964 16.1241 11.6223 16.2052 11.5296C16.2864 11.437 16.3466 11.328 16.382 11.21C17.0319 9.04153 18.4366 7.17737 20.342 5.95501C20.4427 5.89679 20.5305 5.81876 20.6001 5.72565C20.6697 5.63253 20.7198 5.52626 20.7472 5.41325C20.7746 5.30025 20.7788 5.18287 20.7595 5.06819C20.7403 4.95352 20.698 4.84394 20.6352 4.74608C20.5724 4.64822 20.4904 4.56411 20.3941 4.49884C20.2979 4.43357 20.1894 4.3885 20.0753 4.36634C19.9611 4.34418 19.8437 4.3454 19.73 4.36992C19.6164 4.39444 19.5089 4.44176 19.414 4.50901C17.4276 5.78411 15.8947 7.65406 15.034 9.85201C14.505 9.69817 13.9569 9.62006 13.406 9.62001C11.9244 9.62183 10.4955 10.1696 9.39227 11.1586C8.28909 12.1476 7.58906 13.5084 7.426 14.981C3.377 15.78 0 19.24 0 23.37C0 28.109 3.855 31.964 8.594 31.964H13.459C13.498 32.285 13.557 32.614 13.639 32.955L11.78 34.028C11.5828 34.1422 11.439 34.3299 11.3801 34.5501C11.3213 34.7702 11.3521 35.0046 11.466 35.202L13.184 38.179C13.2982 38.3762 13.4859 38.52 13.706 38.5789C13.9262 38.6378 14.1606 38.6069 14.358 38.493L16.212 37.423C17.1323 38.2724 18.2282 38.9088 19.422 39.287V41.417C19.422 41.891 19.807 42.277 20.282 42.277H23.719C23.9471 42.277 24.1658 42.1864 24.3271 42.0251C24.4884 41.8638 24.579 41.6451 24.579 41.417V39.287C25.7725 38.9087 26.8681 38.2723 27.788 37.423L29.641 38.493C29.8384 38.6069 30.0728 38.6378 30.293 38.5789C30.5131 38.52 30.7008 38.3762 30.815 38.179L32.535 35.202C32.6488 35.0045 32.6795 34.77 32.6204 34.5498C32.5614 34.3297 32.4174 34.142 32.22 34.028L30.362 32.955C30.443 32.615 30.502 32.285 30.541 31.964H34.031C39.172 31.964 44 27.81 44 22.511C44 18.212 40.66 14.535 36.598 13.41ZM30.616 35.086L29.756 36.574L28.078 35.604C27.9095 35.5068 27.7129 35.4697 27.5205 35.4988C27.3281 35.5278 27.1513 35.6213 27.019 35.764C26.0859 36.7763 24.8687 37.4832 23.527 37.792C23.3372 37.8355 23.1679 37.942 23.0465 38.0942C22.9252 38.2465 22.8591 38.4353 22.859 38.63V40.556H21.141V38.63C21.1409 38.4353 21.0748 38.2465 20.9535 38.0942C20.8321 37.942 20.6628 37.8355 20.473 37.792C19.1312 37.4834 17.914 36.7765 16.981 35.764C16.8486 35.6211 16.6716 35.5274 16.479 35.4984C16.2864 35.4693 16.0896 35.5065 15.921 35.604L14.243 36.574L13.384 35.086L15.073 34.11C15.2415 34.0125 15.372 33.8607 15.443 33.6794C15.514 33.4981 15.5214 33.2981 15.464 33.112C15.233 32.364 15.125 31.726 15.125 31.103C15.125 30.481 15.233 29.843 15.465 29.095C15.5223 28.9089 15.5148 28.7087 15.4436 28.5274C15.3724 28.3461 15.2417 28.1944 15.073 28.097L13.384 27.121L14.244 25.633L15.922 26.602C16.0907 26.6993 16.2874 26.7364 16.48 26.7074C16.6725 26.6783 16.8495 26.5848 16.982 26.442C17.9146 25.4302 19.131 24.7237 20.472 24.415C20.662 24.3719 20.8317 24.2655 20.9533 24.1132C21.0749 23.9609 21.1411 23.7719 21.141 23.577V21.65H22.859V23.577C22.859 23.977 23.137 24.325 23.527 24.415C24.8686 24.7234 26.0858 25.43 27.019 26.442C27.1515 26.5848 27.3285 26.6783 27.521 26.7074C27.7136 26.7364 27.9103 26.6993 28.079 26.602L29.757 25.632L30.617 27.121L28.927 28.097C28.7585 28.1945 28.628 28.3464 28.557 28.5276C28.486 28.7089 28.4786 28.909 28.536 29.095C28.767 29.842 28.875 30.481 28.875 31.103C28.875 31.726 28.767 32.364 28.535 33.113C28.4779 33.299 28.4856 33.4989 28.5568 33.68C28.628 33.8611 28.7585 34.0127 28.927 34.11L30.617 35.086H30.616Z" fill="#18181B"/>
<path d="M23.8899 3.86099C23.8938 3.74565 23.8744 3.63071 23.8329 3.52302C23.7914 3.41533 23.7287 3.31709 23.6485 3.23415C23.5682 3.15122 23.4721 3.08528 23.3658 3.04027C23.2596 2.99526 23.1453 2.9721 23.0299 2.97217C22.9145 2.97224 22.8003 2.99553 22.6941 3.04066C22.5879 3.08579 22.4918 3.15184 22.4117 3.23487C22.3315 3.3179 22.2689 3.41621 22.2275 3.52395C22.1862 3.63169 22.1669 3.74665 22.1709 3.86199C22.1709 4.09007 22.2615 4.30882 22.4228 4.4701C22.5841 4.63138 22.8028 4.72199 23.0309 4.72199C23.259 4.72199 23.4778 4.63138 23.639 4.4701C23.8003 4.30882 23.8909 4.09007 23.8909 3.86199L23.8899 3.86099Z" fill="#18181B"/>
</g>
</g>
</g>
</g>
<defs>
<clipPath id="clip0_1339_258">
<rect width="44" height="44" fill="white" transform="translate(0 0.560059)"/>
</clipPath>
<clipPath id="clip1_1339_258">
<rect width="44" height="44" fill="white" transform="translate(0 0.560059)"/>
</clipPath>
<clipPath id="clip2_1339_258">
<rect width="44" height="44" fill="white" transform="translate(0 0.560059)"/>
</clipPath>
</defs>
</svg>
