<svg width="44" height="45" viewBox="0 0 44 45" fill="none" xmlns="http://www.w3.org/2000/svg">
<g clip-path="url(#clip0_1339_277)">
<g clip-path="url(#clip1_1339_277)">
<g clip-path="url(#clip2_1339_277)">
<mask id="mask0_1339_277" style="mask-type:luminance" maskUnits="userSpaceOnUse" x="0" y="0" width="44" height="45">
<path d="M0 0.560059H44V44.5601H0V0.560059Z" fill="white"/>
</mask>
<g mask="url(#mask0_1339_277)">
<path d="M2.578 24.2791H5.672V25.1391C5.67306 25.8224 5.94504 26.4774 6.42831 26.9605C6.91158 27.4435 7.56669 27.7153 8.25 27.7161H9.11V38.8881C9.11 39.3631 9.494 39.7481 9.969 39.7481H15.125C15.3531 39.7481 15.5718 39.6575 15.7331 39.4962C15.8944 39.3349 15.985 39.1162 15.985 38.8881V32.8721H18.563C19.2466 32.8715 19.902 32.5998 20.3853 32.1164C20.8687 31.6331 21.1405 30.9776 21.141 30.2941V28.0021L37.125 32.6581V33.7321C37.125 34.2071 37.51 34.5921 37.985 34.5921H43.141C43.3689 34.5918 43.5874 34.5011 43.7485 34.3398C43.9095 34.1786 44 33.96 44 33.7321V6.23207C44 6.00398 43.9094 5.78524 43.7481 5.62396C43.5868 5.46268 43.3681 5.37207 43.14 5.37207H37.984C37.7561 5.37234 37.5376 5.46306 37.3765 5.62431C37.2155 5.78556 37.125 6.00416 37.125 6.23207V7.30607L33.134 8.46807C32.9152 8.53172 32.7306 8.67969 32.6209 8.87941C32.5112 9.07914 32.4853 9.31427 32.549 9.53307C32.6127 9.75187 32.7606 9.93643 32.9603 10.0461C33.1601 10.1558 33.3952 10.1817 33.614 10.1181L37.125 9.09607V30.8681L21.141 26.2121V13.7521L27.013 12.0421C27.223 11.971 27.3974 11.8217 27.4999 11.6251C27.6024 11.4286 27.6251 11.2 27.5632 10.9872C27.5012 10.7744 27.3595 10.5936 27.1676 10.4828C26.9757 10.3719 26.7483 10.3394 26.533 10.3921L20.159 12.2471H8.25C7.56634 12.2479 6.91093 12.5199 6.4276 13.0034C5.94428 13.4869 5.67253 14.1424 5.672 14.8261V15.6851H2.578C1.89452 15.6859 1.23925 15.9577 0.755956 16.441C0.272659 16.9243 0.000793981 17.5796 0 18.2631L0 21.7011C0.000793981 22.3846 0.272659 23.0398 0.755956 23.5231C1.23925 24.0064 1.89452 24.2783 2.578 24.2791ZM42.281 7.09007V32.8721H38.844V7.09007H42.281ZM14.266 38.0301H10.828V27.7161H14.266V38.0301ZM18.562 31.1551H15.984V27.7171H19.422V30.2951C19.422 30.5232 19.3314 30.7419 19.1701 30.9032C19.0088 31.0645 18.7901 31.1551 18.562 31.1551ZM7.392 14.8261C7.392 14.5982 7.48247 14.3796 7.64353 14.2183C7.8046 14.0571 8.02309 13.9663 8.251 13.9661H9.111V19.9821C9.10539 20.0984 9.12345 20.2146 9.16408 20.3237C9.20472 20.4328 9.26708 20.5325 9.3474 20.6168C9.42772 20.7011 9.52432 20.7682 9.63134 20.814C9.73836 20.8599 9.85357 20.8835 9.97 20.8835C10.0864 20.8835 10.2016 20.8599 10.3087 20.814C10.4157 20.7682 10.5123 20.7011 10.5926 20.6168C10.6729 20.5325 10.7353 20.4328 10.7759 20.3237C10.8166 20.2146 10.8346 20.0984 10.829 19.9821V13.9661H12.548V19.9821C12.5441 20.0974 12.5634 20.2124 12.6048 20.3201C12.6462 20.4278 12.7089 20.5261 12.7891 20.609C12.8693 20.692 12.9654 20.758 13.0716 20.8031C13.1779 20.8482 13.2921 20.8714 13.4075 20.8714C13.5229 20.8714 13.6371 20.8482 13.7434 20.8031C13.8496 20.758 13.9457 20.692 14.0259 20.609C14.1061 20.5261 14.1688 20.4278 14.2102 20.3201C14.2516 20.2124 14.2709 20.0974 14.267 19.9821V13.9661H15.985V19.9821C15.985 20.095 16.0072 20.2068 16.0505 20.3112C16.0937 20.4155 16.157 20.5103 16.2369 20.5902C16.3167 20.67 16.4116 20.7334 16.5159 20.7766C16.6202 20.8198 16.7321 20.8421 16.845 20.8421C16.9579 20.8421 17.0698 20.8198 17.1741 20.7766C17.2784 20.7334 17.3733 20.67 17.4531 20.5902C17.533 20.5103 17.5963 20.4155 17.6395 20.3112C17.6828 20.2068 17.705 20.095 17.705 19.9821V13.9661H19.423V25.9971H8.25C8.02209 25.9971 7.80349 25.9066 7.64224 25.7455C7.48099 25.5845 7.39026 25.366 7.39 25.1381V14.8261H7.392ZM1.72 18.2631C1.72 18.035 1.81061 17.8162 1.97189 17.655C2.13317 17.4937 2.35191 17.4031 2.58 17.4031H5.673V22.5601H2.578C2.34991 22.5601 2.13117 22.4695 1.96989 22.3082C1.80861 22.1469 1.718 21.9282 1.718 21.7001V18.2631H1.72Z" fill="#18181B"/>
<path d="M29.2192 10.2702C29.2192 10.4982 29.3098 10.717 29.4711 10.8783C29.6324 11.0395 29.8512 11.1302 30.0792 11.1302C30.3073 11.1302 30.5261 11.0395 30.6873 10.8783C30.8486 10.717 30.9392 10.4982 30.9392 10.2702C30.9392 10.0421 30.8486 9.82332 30.6873 9.66204C30.5261 9.50076 30.3073 9.41016 30.0792 9.41016C29.8512 9.41016 29.6324 9.50076 29.4711 9.66204C29.3098 9.82332 29.2192 10.0421 29.2192 10.2702Z" fill="#18181B"/>
</g>
</g>
</g>
</g>
<defs>
<clipPath id="clip0_1339_277">
<rect width="44" height="44" fill="white" transform="translate(0 0.560059)"/>
</clipPath>
<clipPath id="clip1_1339_277">
<rect width="44" height="44" fill="white" transform="translate(0 0.560059)"/>
</clipPath>
<clipPath id="clip2_1339_277">
<rect width="44" height="44" fill="white" transform="translate(0 0.560059)"/>
</clipPath>
</defs>
</svg>
