<svg width="48" height="49" viewBox="0 0 48 49" fill="none" xmlns="http://www.w3.org/2000/svg">
<g clip-path="url(#clip0_1339_638)">
<g clip-path="url(#clip1_1339_638)">
<g clip-path="url(#clip2_1339_638)">
<path d="M29.6249 21.3179C29.8736 21.3179 30.1122 21.2191 30.2881 21.0432C30.464 20.8673 30.5629 20.6287 30.5629 20.3799C30.5629 20.1311 30.464 19.8925 30.2881 19.7166C30.1122 19.5407 29.8736 19.4419 29.6249 19.4419C29.3815 19.4498 29.1508 19.5521 28.9815 19.727C28.8122 19.902 28.7175 20.1359 28.7175 20.3794C28.7175 20.6229 28.8122 20.8568 28.9815 21.0317C29.1508 21.2067 29.3815 21.3099 29.6249 21.3179ZM29.6249 42.5049C29.5017 42.5049 29.3797 42.5292 29.2659 42.5763C29.1521 42.6234 29.0487 42.6925 28.9616 42.7796C28.8745 42.8667 28.8054 42.9701 28.7583 43.0839C28.7111 43.1977 28.6869 43.3197 28.6869 43.4429C28.6869 43.5661 28.7111 43.688 28.7583 43.8019C28.8054 43.9157 28.8745 44.0191 28.9616 44.1062C29.0487 44.1933 29.1521 44.2624 29.2659 44.3095C29.3797 44.3566 29.5017 44.3809 29.6249 44.3809C29.8736 44.3809 30.1122 44.2821 30.2881 44.1062C30.464 43.9303 30.5629 43.6917 30.5629 43.4429C30.5629 43.1941 30.464 42.9555 30.2881 42.7796C30.1122 42.6037 29.8736 42.5049 29.6249 42.5049ZM18.3749 19.4429C18.2492 19.4388 18.1239 19.46 18.0066 19.5053C17.8893 19.5505 17.7823 19.6189 17.6919 19.7064C17.6015 19.7938 17.5297 19.8986 17.4806 20.0144C17.4315 20.1302 17.4062 20.2546 17.4062 20.3804C17.4062 20.5062 17.4315 20.6306 17.4806 20.7464C17.5297 20.8622 17.6015 20.9669 17.6919 21.0544C17.7823 21.1419 17.8893 21.2103 18.0066 21.2555C18.1239 21.3008 18.2492 21.322 18.3749 21.3179C18.6182 21.3099 18.8489 21.2077 19.0183 21.0327C19.1876 20.8578 19.2822 20.6239 19.2822 20.3804C19.2822 20.1369 19.1876 19.903 19.0183 19.728C18.8489 19.5531 18.6182 19.4508 18.3749 19.4429Z" fill="#18181B"/>
<path d="M39.938 16.6319V16.0679C39.938 7.27988 32.788 0.129883 24 0.129883C15.212 0.129883 8.06201 7.27988 8.06201 16.0679V16.6319C7.4813 17.0693 7.00987 17.6354 6.68472 18.2857C6.35957 18.936 6.18956 19.6528 6.18801 20.3799V24.1299C6.18934 25.3726 6.68354 26.5641 7.5622 27.443C8.44087 28.3218 9.63226 28.8163 10.875 28.8179H13.729C15.0692 30.9134 17.0175 32.5497 19.313 33.5079V36.8799H12.75C11.01 36.8817 9.34172 37.5738 8.11132 38.8042C6.88092 40.0346 6.18886 41.7028 6.18701 43.4429V47.1929C6.18701 47.7099 6.60701 48.1299 7.12501 48.1299H40.875C41.393 48.1299 41.813 47.7099 41.813 47.1919V43.4419C41.8109 41.702 41.1187 40.034 39.8884 38.8038C38.658 37.5737 36.9899 36.8817 35.25 36.8799H28.687V33.5069C30.9825 32.5486 32.9307 30.9124 34.271 28.8169H37.125C38.3678 28.8156 39.5593 28.3214 40.4381 27.4427C41.317 26.564 41.8114 25.3726 41.813 24.1299V20.3799C41.813 18.8999 41.107 17.5109 39.938 16.6319ZM24 2.00488C31.66 2.00488 37.91 8.16188 38.059 15.7869C37.7516 15.724 37.4387 15.6922 37.125 15.6919H36.182C36.1714 15.3395 36.145 14.9879 36.103 14.6379C35.388 8.50488 30.184 3.87988 24 3.87988C22.8671 3.87912 21.7396 4.0363 20.65 4.34688C20.5316 4.38063 20.421 4.43737 20.3246 4.51385C20.2281 4.59034 20.1477 4.68508 20.0878 4.79265C20.028 4.90023 19.9899 5.01854 19.9758 5.14083C19.9617 5.26312 19.9718 5.387 20.0055 5.50538C20.0393 5.62377 20.096 5.73435 20.1725 5.83081C20.249 5.92727 20.3437 6.00772 20.4513 6.06757C20.5589 6.12741 20.6772 6.16549 20.7995 6.17961C20.9218 6.19373 21.0456 6.18363 21.164 6.14988C22.0864 5.88703 23.0409 5.75409 24 5.75488C28.877 5.75488 33.032 9.15288 34.065 13.8179H31.5C30.7542 13.8171 30.0392 13.5205 29.5118 12.9931C28.9844 12.4657 28.6878 11.7507 28.687 11.0049C28.6863 10.7827 28.6066 10.5679 28.4623 10.3989C28.318 10.2299 28.1184 10.1177 27.899 10.0821C27.6797 10.0466 27.4548 10.0901 27.2645 10.2049C27.0742 10.3197 26.9309 10.4983 26.86 10.7089C26.3772 12.1609 25.4491 13.4239 24.2076 14.3184C22.9661 15.213 21.4742 15.6935 19.944 15.6919H13.694C13.7631 13.6638 14.4335 11.7021 15.62 10.0559C15.7555 9.85371 15.8072 9.60678 15.764 9.36725C15.7208 9.12772 15.5862 8.91434 15.3887 8.7722C15.1911 8.63006 14.946 8.57028 14.7052 8.60549C14.4643 8.64069 14.2466 8.76813 14.098 8.96088C12.6814 10.926 11.8877 13.2713 11.82 15.6929H10.875C10.56 15.6929 10.247 15.7249 9.94101 15.7869C10.091 8.16188 16.34 2.00488 24 2.00488ZM8.06201 24.1299V20.3799C8.06254 19.634 8.35908 18.9188 8.88651 18.3914C9.41393 17.864 10.1291 17.5674 10.875 17.5669H11.813V22.2549C11.813 23.8709 12.133 25.4649 12.748 26.9429H10.875C10.1292 26.9421 9.41417 26.6455 8.8868 26.1181C8.35943 25.5907 8.06281 24.8757 8.06201 24.1299ZM13.688 22.2549V17.5669H19.943C21.4451 17.5685 22.9246 17.2005 24.2509 16.4952C25.5771 15.79 26.7095 14.7692 27.548 13.5229C27.9713 14.1876 28.5553 14.7349 29.246 15.1142C29.9368 15.4934 30.712 15.6925 31.5 15.6929H34.305C34.31 15.8169 34.313 15.9429 34.313 16.0669V22.2549C34.313 24.6119 33.514 26.9249 31.953 28.8179H24C23.8745 28.8138 23.7494 28.835 23.6321 28.8802C23.5149 28.9254 23.408 28.9937 23.3178 29.0811C23.2275 29.1685 23.1557 29.2731 23.1067 29.3888C23.0577 29.5044 23.0324 29.6288 23.0324 29.7544C23.0324 29.88 23.0577 30.0044 23.1067 30.12C23.1557 30.2357 23.2275 30.3403 23.3178 30.4277C23.408 30.515 23.5149 30.5834 23.6321 30.6286C23.7494 30.6738 23.8745 30.695 24 30.6909H29.93C28.1954 31.9156 26.1234 32.5714 24 32.5679C18.302 32.5679 13.688 27.9479 13.688 22.2549ZM27.422 38.6949L24 42.1169L20.578 38.6949C20.7569 38.6283 20.9112 38.5086 21.0202 38.3518C21.1293 38.1951 21.1878 38.0088 21.188 37.8179V34.1159C22.105 34.3329 23.046 34.4429 24 34.4429C24.954 34.4429 25.895 34.3329 26.813 34.1159V37.8179C26.813 38.2199 27.066 38.5619 27.422 38.6949ZM8.06201 43.4429C8.06334 42.2 8.55767 41.0083 9.43656 40.1294C10.3154 39.2505 11.5071 38.7562 12.75 38.7549H17.986L23.062 43.8309V46.2549H8.06201V43.4429ZM39.938 43.4429V46.2549H24.938V43.8309L30.014 38.7549H35.25C36.4929 38.7562 37.6846 39.2505 38.5635 40.1294C39.4423 41.0083 39.9367 42.2 39.938 43.4429ZM39.938 24.1299C39.9372 24.8757 39.6406 25.5907 39.1132 26.1181C38.5859 26.6455 37.8708 26.9421 37.125 26.9429H35.252C35.867 25.4659 36.187 23.8709 36.187 22.2549V17.5669H37.125C37.8709 17.5674 38.5861 17.864 39.1135 18.3914C39.6409 18.9188 39.9375 19.634 39.938 20.3799V24.1299Z" fill="#18181B"/>
<path d="M23.9999 26.9429C24.8225 26.9413 25.6303 26.724 26.3427 26.3127C27.0551 25.9014 27.6472 25.3105 28.0599 24.5989C28.1752 24.3843 28.2024 24.1332 28.1359 23.8988C28.0693 23.6645 27.9142 23.4652 27.7033 23.3432C27.4924 23.2212 27.2423 23.186 27.006 23.2451C26.7696 23.3042 26.5655 23.453 26.4369 23.6599C26.1892 24.0871 25.8338 24.4419 25.4062 24.689C24.9786 24.936 24.4937 25.0667 23.9999 25.0679C23.5062 25.0669 23.0213 24.9364 22.5937 24.6896C22.1661 24.4427 21.8107 24.088 21.5629 23.6609C21.4354 23.4514 21.231 23.3001 20.9933 23.2395C20.7556 23.1789 20.5037 23.2138 20.2915 23.3368C20.0792 23.4597 19.9236 23.6608 19.8579 23.8971C19.7922 24.1334 19.8216 24.3861 19.9399 24.6009C20.353 25.3119 20.9452 25.9022 21.6576 26.313C22.37 26.7238 23.1776 26.9416 23.9999 26.9429ZM33.3749 44.3799H35.2499C35.4986 44.3799 35.737 44.2811 35.9128 44.1053C36.0886 43.9295 36.1874 43.691 36.1874 43.4424C36.1874 43.1938 36.0886 42.9553 35.9128 42.7795C35.737 42.6037 35.4986 42.5049 35.2499 42.5049H33.3749C33.1263 42.5049 32.8878 42.6037 32.712 42.7795C32.5362 42.9553 32.4374 43.1938 32.4374 43.4424C32.4374 43.691 32.5362 43.9295 32.712 44.1053C32.8878 44.2811 33.1263 44.3799 33.3749 44.3799ZM17.5309 7.81789C17.6541 7.81789 17.7761 7.79363 17.8899 7.74649C18.0037 7.69935 18.1071 7.63026 18.1942 7.54316C18.2813 7.45606 18.3504 7.35266 18.3975 7.23885C18.4446 7.12505 18.4689 7.00307 18.4689 6.87989C18.4689 6.75671 18.4446 6.63474 18.3975 6.52094C18.3504 6.40713 18.2813 6.30373 18.1942 6.21663C18.1071 6.12953 18.0037 6.06043 17.8899 6.0133C17.7761 5.96616 17.6541 5.94189 17.5309 5.94189C17.2876 5.94984 17.0569 6.0521 16.8875 6.22705C16.7182 6.40199 16.6235 6.63592 16.6235 6.87939C16.6235 7.12287 16.7182 7.3568 16.8875 7.53174C17.0569 7.70669 17.2876 7.80895 17.5309 7.81689V7.81789Z" fill="#18181B"/>
</g>
</g>
</g>
<defs>
<clipPath id="clip0_1339_638">
<rect width="48" height="48" fill="white" transform="translate(0 0.129883)"/>
</clipPath>
<clipPath id="clip1_1339_638">
<rect width="48" height="48" fill="white" transform="translate(0 0.129883)"/>
</clipPath>
<clipPath id="clip2_1339_638">
<rect width="48" height="48" fill="white" transform="translate(0 0.129883)"/>
</clipPath>
</defs>
</svg>
