<svg width="48" height="49" viewBox="0 0 48 49" fill="none" xmlns="http://www.w3.org/2000/svg">
<g clip-path="url(#clip0_1339_649)">
<g clip-path="url(#clip1_1339_649)">
<g clip-path="url(#clip2_1339_649)">
<mask id="mask0_1339_649" style="mask-type:luminance" maskUnits="userSpaceOnUse" x="0" y="0" width="48" height="49">
<path d="M0 0.129883H48V48.1299H0V0.129883Z" fill="white"/>
</mask>
<g mask="url(#mask0_1339_649)">
<path d="M4.4099 21.6869C5.1469 29.5059 10.4799 36.0849 17.8239 38.5119L22.3719 46.2549H12.7599C12.5166 46.2628 12.2858 46.3651 12.1165 46.54C11.9472 46.715 11.8525 46.9489 11.8525 47.1924C11.8525 47.4359 11.9472 47.6698 12.1165 47.8447C12.2858 48.0197 12.5166 48.1219 12.7599 48.1299H37.1349C37.3835 48.1299 37.622 48.0311 37.7978 47.8553C37.9736 47.6795 38.0724 47.441 38.0724 47.1924C38.0724 46.9437 37.9736 46.7053 37.7978 46.5295C37.622 46.3537 37.3835 46.2549 37.1349 46.2549H25.6479L30.1969 38.5119C38.0199 35.9199 43.6969 28.5539 43.6969 19.8179C43.6979 8.96188 34.8669 0.129883 24.0099 0.129883C15.1079 0.129883 7.7139 6.00588 5.2299 13.8969C5.18995 14.015 5.17398 14.1399 5.18292 14.2643C5.19187 14.3887 5.22555 14.51 5.28199 14.6212C5.33844 14.7324 5.41651 14.8312 5.51163 14.9118C5.60675 14.9925 5.71701 15.0533 5.83595 15.0908C5.95489 15.1283 6.0801 15.1416 6.20427 15.1301C6.32843 15.1185 6.44904 15.0823 6.55903 15.0235C6.66901 14.9648 6.76617 14.8847 6.84479 14.7879C6.92342 14.6911 6.98193 14.5796 7.0169 14.4599C9.3639 7.00988 16.1929 2.00488 24.0099 2.00488C33.8319 2.00488 41.8229 9.99488 41.8229 19.8179C41.8229 27.6709 36.7869 34.5089 29.2929 36.8329C29.0697 36.9018 28.8804 37.0516 28.7619 37.2529L24.0099 45.3419L19.2599 37.2529C19.1413 37.0517 18.952 36.902 18.7289 36.8329C15.3692 35.7991 12.3921 33.7909 10.1752 31.0629C7.95839 28.3349 6.60158 25.01 6.2769 21.5099C6.25356 21.2623 6.13283 21.0341 5.94126 20.8756C5.74969 20.717 5.50298 20.641 5.2554 20.6644C5.00782 20.6877 4.77966 20.8085 4.62109 21C4.46253 21.1916 4.38656 21.4393 4.4099 21.6869Z" fill="#18181B"/>
<path d="M24.0097 33.8799C31.7417 33.8799 38.0727 27.6169 38.0727 19.8169C38.0727 12.0629 31.7637 5.75488 24.0097 5.75488C22.6437 5.75488 21.2927 5.95088 19.9927 6.33788C14.2287 8.04788 9.94767 13.4049 9.94767 19.8179C9.94767 27.5479 16.2057 33.8799 24.0097 33.8799ZM24.0097 32.0049C22.3797 32.0049 20.8057 31.6899 19.3227 31.0709V29.1929C19.3227 28.6749 19.7427 28.2549 20.2597 28.2549H22.1347C22.8805 28.2541 23.5955 27.9575 24.1229 27.4301C24.6502 26.9027 24.9469 26.1877 24.9477 25.4419C24.9477 24.9249 25.3677 24.5049 25.8847 24.5049C26.6305 24.5041 27.3455 24.2075 27.8729 23.6801C28.4002 23.1527 28.6969 22.4377 28.6977 21.6919V19.8169C28.7112 19.5774 28.8159 19.3522 28.9902 19.1875C29.1646 19.0227 29.3953 18.9309 29.6352 18.9309C29.875 18.9309 30.1058 19.0227 30.2801 19.1875C30.4544 19.3522 30.5591 19.5774 30.5727 19.8169C30.5735 20.5624 30.87 21.2772 31.3972 21.8044C31.9243 22.3316 32.6391 22.6281 33.3847 22.6289H35.8707C34.5877 28.0429 29.6687 32.0049 24.0097 32.0049ZM36.1977 19.8169C36.1977 20.1309 36.1847 20.4439 36.1607 20.7549H33.3847C33.1361 20.7544 32.898 20.6553 32.7223 20.4795C32.5467 20.3037 32.4479 20.0654 32.4477 19.8169C32.4466 19.0712 32.1499 18.3565 31.6225 17.8293C31.0952 17.3022 30.3803 17.0057 29.6347 17.0049C28.889 17.0059 28.1742 17.3027 27.6471 17.83C27.1199 18.3574 26.8235 19.0722 26.8227 19.8179V21.6929C26.8227 22.2099 26.4027 22.6299 25.8847 22.6299C25.139 22.6309 24.4242 22.9277 23.8971 23.455C23.3699 23.9824 23.0735 24.6972 23.0727 25.4429C23.0727 25.9599 22.6527 26.3799 22.1347 26.3799H20.2597C19.514 26.3809 18.7993 26.6777 18.2721 27.205C17.7449 27.7324 17.4485 28.4472 17.4477 29.1929V30.0859C15.8618 29.0646 14.5326 27.6915 13.5635 26.0732C12.5944 24.455 12.0113 22.6351 11.8597 20.7549H16.5097C17.2555 20.7541 17.9705 20.4575 18.4979 19.9301C19.0252 19.4027 19.3219 18.6877 19.3227 17.9419C19.3227 17.4249 19.7427 17.0049 20.2597 17.0049H24.0097C24.7555 17.0041 25.4705 16.7075 25.9979 16.1801C26.5252 15.6527 26.8219 14.9377 26.8227 14.1919C26.8216 13.4462 26.5249 12.7315 25.9975 12.2043C25.4702 11.6772 24.7553 11.3807 24.0097 11.3799H22.1347C21.8861 11.3794 21.648 11.2803 21.4723 11.1045C21.2967 10.9287 21.1979 10.6904 21.1977 10.4419V7.95888C22.1191 7.74073 23.0628 7.63032 24.0097 7.62988C30.7297 7.62988 36.1977 13.0959 36.1977 19.8169ZM19.3227 8.56788V10.4439C19.3237 11.1893 19.6203 11.904 20.1475 12.4311C20.6746 12.9582 21.3892 13.2548 22.1347 13.2559H24.0097C24.253 13.2638 24.4837 13.3661 24.653 13.541C24.8224 13.716 24.917 13.9499 24.917 14.1934C24.917 14.4369 24.8224 14.6708 24.653 14.8457C24.4837 15.0207 24.253 15.1229 24.0097 15.1309H20.2597C19.514 15.1319 18.7993 15.4287 18.2721 15.956C17.7449 16.4834 17.4485 17.1982 17.4477 17.9439C17.4477 18.4609 17.0277 18.8809 16.5097 18.8809H11.8597C12.2167 14.3369 15.1367 10.3209 19.3227 8.56788ZM5.35367 18.7859C5.47936 18.79 5.60459 18.7688 5.72192 18.7235C5.83925 18.6782 5.94627 18.6098 6.03664 18.5224C6.127 18.4349 6.19886 18.3302 6.24793 18.2144C6.297 18.0986 6.32229 17.9741 6.32229 17.8484C6.32229 17.7226 6.297 17.5982 6.24793 17.4824C6.19886 17.3666 6.127 17.2618 6.03664 17.1744C5.94627 17.0869 5.83925 17.0185 5.72192 16.9733C5.60459 16.928 5.47936 16.9068 5.35367 16.9109C5.11033 16.9188 4.87961 17.0211 4.71028 17.196C4.54096 17.371 4.44629 17.6049 4.44629 17.8484C4.44629 18.0919 4.54096 18.3258 4.71028 18.5007C4.87961 18.6757 5.11033 18.7779 5.35367 18.7859Z" fill="#18181B"/>
</g>
</g>
</g>
</g>
<defs>
<clipPath id="clip0_1339_649">
<rect width="48" height="48" fill="white" transform="translate(0 0.129883)"/>
</clipPath>
<clipPath id="clip1_1339_649">
<rect width="48" height="48" fill="white" transform="translate(0 0.129883)"/>
</clipPath>
<clipPath id="clip2_1339_649">
<rect width="48" height="48" fill="white" transform="translate(0 0.129883)"/>
</clipPath>
</defs>
</svg>
